<svg id="icon-twitter" viewBox="0 0 92 74.77"><title>Twitter</title><path d="M92,8.85a37.76,37.76,0,0,1-10.84,3,18.93,18.93,0,0,0,8.3-10.44A37.84,37.84,0,0,1,77.47,6,18.89,18.89,0,0,0,45.31,23.17,53.58,53.58,0,0,1,6.4,3.45a18.89,18.89,0,0,0,5.84,25.2A18.8,18.8,0,0,1,3.7,26.29c0,.08,0,.16,0,.24A18.89,18.89,0,0,0,18.83,45a18.89,18.89,0,0,1-8.52.32A18.9,18.9,0,0,0,27.94,58.47,37.87,37.87,0,0,1,4.5,66.55,37.85,37.85,0,0,1,0,66.28a53.4,53.4,0,0,0,28.93,8.48c34.72,0,53.7-28.76,53.7-53.71q0-1.22-.05-2.44A38.32,38.32,0,0,0,92,8.85Z"/></svg>
